# xmcd
#
# Track frame offsets: 
#        182
#        13690
#        43270
#        69845
#
# Disc length: 1109 seconds
#
# Revision: 0
# Processed by: cddbd v1.5.2PL0 Copyright (c) Steve Scherf et al.
# Submitted via: ExactAudioCopyFreeDBPlugin 1.0
#
DISCID=2c045304
DTITLE=Mojams - You Can Do Magic [CD Single)
DYEAR=1997
DGENRE=Pop
TTITLE0=You Can Do Magic (Radio Edit)
TTITLE1=You Can Do Magic (Hair Extensions Mix)
TTITLE2=Magic Baby
TTITLE3=You Can Do Magic (Instrumental)
EXTD=
EXTT0=
EXTT1=
EXTT2=
EXTT3=
PLAYORDER=
